<?xml version="1.0" encoding="UTF-8"?><svg id="_レイヤー_2" xmlns="http://www.w3.org/2000/svg" viewBox="0 0 36 36"><defs><style>.cls-1{fill:#fff;stroke-width:0px;}</style></defs><g id="design"><circle class="cls-1" cx="18" cy="18" r="18"/><path d="m13.53,7.27c-1.15.05-1.93.24-2.62.51-.71.28-1.31.65-1.91,1.25-.6.6-.97,1.2-1.24,1.92-.27.69-.45,1.47-.5,2.62-.05,1.15-.06,1.52-.06,4.45,0,2.93.02,3.3.07,4.45.05,1.15.24,1.93.51,2.62.28.71.65,1.31,1.25,1.91.6.6,1.2.97,1.92,1.24.69.27,1.47.45,2.62.5,1.15.05,1.52.06,4.45.06,2.93,0,3.3-.02,4.45-.07,1.15-.05,1.93-.24,2.62-.51.71-.28,1.31-.65,1.91-1.25.6-.6.97-1.2,1.24-1.92.27-.69.45-1.47.5-2.62.05-1.15.06-1.52.06-4.45,0-2.93-.02-3.3-.07-4.45-.05-1.15-.24-1.93-.51-2.62-.28-.71-.65-1.31-1.25-1.91-.6-.6-1.2-.97-1.92-1.24-.69-.27-1.47-.45-2.62-.5-1.15-.05-1.52-.06-4.45-.06-2.93,0-3.3.02-4.45.07m.13,19.52c-1.05-.05-1.62-.22-2.01-.37-.5-.2-.86-.43-1.24-.81-.38-.38-.61-.74-.81-1.24-.15-.38-.33-.95-.38-2.01-.05-1.14-.07-1.48-.07-4.36,0-2.88,0-3.22.05-4.36.05-1.05.22-1.62.37-2.01.2-.51.43-.86.81-1.24.38-.38.74-.61,1.24-.81.38-.15.95-.33,2-.38,1.14-.05,1.48-.07,4.36-.07,2.88,0,3.23,0,4.36.05,1.05.05,1.62.22,2.01.37.5.2.86.43,1.24.81.38.38.61.74.81,1.24.15.38.33.95.38,2,.05,1.14.07,1.48.07,4.36,0,2.88,0,3.23-.05,4.36-.05,1.05-.22,1.63-.37,2.01-.2.5-.43.86-.81,1.24-.38.38-.74.61-1.24.81-.38.15-.95.33-2,.38-1.14.05-1.48.07-4.36.07-2.88,0-3.22,0-4.36-.05m8.8-14.57c0,.72.58,1.29,1.3,1.29.72,0,1.29-.58,1.29-1.3,0-.72-.58-1.29-1.3-1.29s-1.29.58-1.29,1.3m-10,5.78c0,3.06,2.49,5.54,5.56,5.53,3.06,0,5.54-2.49,5.54-5.56,0-3.06-2.49-5.54-5.56-5.53-3.06,0-5.54,2.49-5.53,5.56m1.95,0c0-1.99,1.61-3.6,3.59-3.61,1.99,0,3.6,1.6,3.61,3.59,0,1.99-1.61,3.6-3.59,3.61-1.99,0-3.6-1.6-3.61-3.59"/></g></svg>