<?xml version="1.0" encoding="UTF-8"?><svg id="_レイヤー_2" xmlns="http://www.w3.org/2000/svg" viewBox="0 0 84 44.29"><defs><style>.cls-1{fill:#fff;stroke-width:0px;}</style></defs><g id="design"><path class="cls-1" d="m80.9,27.74c-.72,0-1.44-.25-2.03-.76L55.94,7.14c-1.47-1.27-3.68-1.27-5.14,0l-3.89,3.37c-2.8,2.42-7.01,2.42-9.81,0l-3.89-3.37c-1.47-1.27-3.68-1.27-5.14,0L5.13,26.99c-1.29,1.12-3.25.98-4.37-.32-1.12-1.29-.98-3.25.32-4.37L24,2.45c3.78-3.27,9.48-3.27,13.26,0l3.89,3.37c.48.42,1.21.42,1.69,0l3.89-3.37c3.78-3.27,9.48-3.27,13.26,0l22.93,19.85c1.29,1.12,1.44,3.08.32,4.37-.61.71-1.48,1.07-2.35,1.07Z"/><path class="cls-1" d="m19.78,27.64c-.87,0-1.73-.36-2.35-1.07-1.12-1.29-.98-3.25.32-4.37l9.19-7.95c2.8-2.42,7.01-2.42,9.81,0l3.89,3.37c1.47,1.27,3.68,1.27,5.14,0l6.77-5.86c1.29-1.12,3.25-.98,4.37.32,1.12,1.29.98,3.25-.32,4.37l-6.77,5.86c-3.78,3.27-9.48,3.27-13.26,0l-3.89-3.37c-.48-.42-1.21-.42-1.69,0l-9.19,7.95c-.59.51-1.31.76-2.03.76Z"/><path class="cls-1" d="m12.1,37.92l2.47,4.73,2.47-4.73.63-1.2.84,7.56h-.76l-.56-5.01-2.62,5.01-.43-.82h0s-2.2-4.2-2.2-4.2l-.56,5.02h-.76l.84-7.56.63,1.2Z"/><path class="cls-1" d="m19.95,36.72h4.32v.76h-3.56v3.89h3.01v.76h-3.01v1.41h3.56v.76h-4.32v-7.56h0Z"/><path class="cls-1" d="m26.23,36.72v7.56h-.76v-7.56h.76Z"/><path class="cls-1" d="m36.03,36.72v7.56h0l-.76-.88-3.96-4.63v5.52h-.76v-7.56l.76.88,3.96,4.63v-5.52h.76Z"/><path class="cls-1" d="m40.75,37.69l2.77,6.59h-.82l-.48-1.14h-3.77l-.48,1.14h-.82l3.18-7.56.41.97Zm-1.98,4.69h3.13l-1.57-3.72-1.57,3.72Z"/><path class="cls-1" d="m50.52,37.83l-.54.53c-1.17-1.19-3.07-1.2-4.25-.01-1.18,1.18-1.19,3.1-.02,4.29,1.1,1.12,2.84,1.2,4.03.22v-1.5h-2.11v-.76h2.87v2.59h0c-1.47,1.47-3.86,1.46-5.32-.02-1.46-1.48-1.45-3.89.02-5.36.74-.74,1.7-1.1,2.67-1.1.96,0,1.93.38,2.66,1.12Z"/><path class="cls-1" d="m55.05,37.69l2.77,6.59h-.82l-.48-1.14h-3.77l-.48,1.14h-.82l3.18-7.56.41.97Zm-1.98,4.69h3.13l-1.57-3.72-1.57,3.72Z"/><path class="cls-1" d="m64.43,36.72v7.56h0l-.76-.88-3.96-4.63v5.52h-.76v-7.56l.76.88,3.96,4.63v-5.52h.76Z"/><path class="cls-1" d="m73.3,40.5c0,2.08-1.68,3.78-3.75,3.78s-3.75-1.7-3.75-3.78,1.68-3.78,3.75-3.78,3.75,1.7,3.75,3.78Zm-6.75,0c0,1.68,1.34,3.02,3,3.02s3-1.35,3-3.02-1.34-3.02-3-3.02-3,1.35-3,3.02Z"/></g></svg>