<?xml version="1.0" encoding="UTF-8"?><svg id="_レイヤー_2" xmlns="http://www.w3.org/2000/svg" viewBox="0 0 39.85 37.2"><defs><style>.cls-1{fill:none;stroke:#002bcf;stroke-dasharray:0 0 0 1.3;stroke-linecap:round;stroke-linejoin:round;stroke-width:.87px;}</style></defs><g id="_レイヤー_1-2"><line class="cls-1" x1=".43" y1=".43" x2="39.42" y2=".43"/><line class="cls-1" x1=".43" y1="2.7" x2="39.42" y2="2.7"/><line class="cls-1" x1=".43" y1="4.98" x2="39.42" y2="4.98"/><line class="cls-1" x1=".43" y1="7.25" x2="39.42" y2="7.25"/><line class="cls-1" x1=".43" y1="9.52" x2="39.42" y2="9.52"/><line class="cls-1" x1=".43" y1="11.79" x2="39.42" y2="11.79"/><line class="cls-1" x1=".43" y1="14.06" x2="39.42" y2="14.06"/><line class="cls-1" x1=".43" y1="16.33" x2="39.42" y2="16.33"/><line class="cls-1" x1=".43" y1="18.6" x2="39.42" y2="18.6"/><line class="cls-1" x1=".43" y1="20.87" x2="39.42" y2="20.87"/><line class="cls-1" x1=".43" y1="23.14" x2="39.42" y2="23.14"/><line class="cls-1" x1=".43" y1="25.42" x2="39.42" y2="25.42"/><line class="cls-1" x1=".43" y1="27.69" x2="39.42" y2="27.69"/><line class="cls-1" x1=".43" y1="29.96" x2="39.42" y2="29.96"/><line class="cls-1" x1=".43" y1="32.23" x2="39.42" y2="32.23"/><line class="cls-1" x1=".43" y1="34.5" x2="39.42" y2="34.5"/><line class="cls-1" x1=".43" y1="36.77" x2="39.42" y2="36.77"/></g></svg>