<?xml version="1.0" encoding="UTF-8"?><svg id="_レイヤー_2" xmlns="http://www.w3.org/2000/svg" xmlns:xlink="http://www.w3.org/1999/xlink" viewBox="0 0 46.64 46.64"><defs><style>.cls-1{clip-path:url(#clippath);}.cls-2,.cls-3{fill:none;}.cls-2,.cls-4,.cls-5{stroke-width:0px;}.cls-6,.cls-5{fill:#fff;}.cls-3{stroke:#000;stroke-miterlimit:10;stroke-width:.3px;}</style><clipPath id="clippath"><rect class="cls-5" x="10.56" y="10.56" width="36.08" height="36.08"/></clipPath></defs><g id="_レイヤー_1-2"><rect class="cls-6" x="10.56" y="10.56" width="36.08" height="36.08"/><g class="cls-1"><line class="cls-3" x1="28.6" y1="28.6" x2="10.56" y2="10.56"/><line class="cls-3" x1="28.6" y1="28.6" x2="9.64" y2="11.53"/><line class="cls-3" x1="28.6" y1="28.6" x2="8.78" y2="12.55"/><line class="cls-3" x1="28.6" y1="28.6" x2="7.96" y2="13.61"/><line class="cls-3" x1="28.6" y1="28.6" x2="7.21" y2="14.71"/><line class="cls-3" x1="28.6" y1="28.6" x2="6.51" y2="15.85"/><line class="cls-3" x1="28.6" y1="28.6" x2="5.87" y2="17.02"/><line class="cls-3" x1="28.6" y1="28.6" x2="5.3" y2="18.23"/><line class="cls-3" x1="28.6" y1="28.6" x2="4.79" y2="19.46"/><line class="cls-3" x1="28.6" y1="28.6" x2="4.34" y2="20.72"/><line class="cls-3" x1="28.6" y1="28.6" x2="3.96" y2="22"/><line class="cls-3" x1="28.6" y1="28.6" x2="3.65" y2="23.3"/><line class="cls-3" x1="28.6" y1="28.6" x2="3.41" y2="24.61"/><line class="cls-3" x1="28.6" y1="28.6" x2="3.23" y2="25.93"/><line class="cls-3" x1="28.6" y1="28.6" x2="3.13" y2="27.27"/><line class="cls-3" x1="28.6" y1="28.6" x2="3.09" y2="28.6"/><line class="cls-3" x1="28.6" y1="28.6" x2="3.13" y2="29.94"/><line class="cls-3" x1="28.6" y1="28.6" x2="3.23" y2="31.27"/><line class="cls-3" x1="28.6" y1="28.6" x2="3.41" y2="32.59"/><line class="cls-3" x1="28.6" y1="28.6" x2="3.65" y2="33.9"/><line class="cls-3" x1="28.6" y1="28.6" x2="3.96" y2="35.2"/><line class="cls-3" x1="28.6" y1="28.6" x2="4.34" y2="36.48"/><line class="cls-3" x1="28.6" y1="28.6" x2="4.79" y2="37.74"/><line class="cls-3" x1="28.6" y1="28.6" x2="5.3" y2="38.98"/><line class="cls-3" x1="28.6" y1="28.6" x2="5.87" y2="40.18"/><line class="cls-3" x1="28.6" y1="28.6" x2="6.51" y2="41.36"/><line class="cls-3" x1="28.6" y1="28.6" x2="7.21" y2="42.49"/><line class="cls-3" x1="28.6" y1="28.6" x2="7.96" y2="43.6"/><line class="cls-3" x1="28.6" y1="28.6" x2="8.78" y2="44.65"/><line class="cls-3" x1="28.6" y1="28.6" x2="9.64" y2="45.67"/><line class="cls-3" x1="28.6" y1="28.6" x2="10.56" y2="46.64"/><line class="cls-3" x1="28.6" y1="28.6" x2="11.53" y2="47.56"/><line class="cls-3" x1="28.6" y1="28.6" x2="12.55" y2="48.43"/><line class="cls-3" x1="28.6" y1="28.6" x2="13.61" y2="49.24"/><line class="cls-3" x1="28.6" y1="28.6" x2="14.71" y2="50"/><line class="cls-3" x1="28.6" y1="28.6" x2="15.85" y2="50.69"/><line class="cls-3" x1="28.6" y1="28.6" x2="17.02" y2="51.33"/><line class="cls-3" x1="28.6" y1="28.6" x2="18.23" y2="51.91"/><line class="cls-3" x1="28.6" y1="28.6" x2="19.46" y2="52.42"/><line class="cls-3" x1="28.6" y1="28.6" x2="20.72" y2="52.86"/><line class="cls-3" x1="28.6" y1="28.6" x2="22" y2="53.24"/><line class="cls-3" x1="28.6" y1="28.6" x2="23.3" y2="53.55"/><line class="cls-3" x1="28.6" y1="28.6" x2="24.61" y2="53.8"/><line class="cls-3" x1="28.6" y1="28.6" x2="25.93" y2="53.97"/><line class="cls-3" x1="28.6" y1="28.6" x2="27.27" y2="54.08"/><line class="cls-3" x1="28.6" y1="28.6" x2="28.6" y2="54.11"/><line class="cls-3" x1="28.6" y1="28.6" x2="29.94" y2="54.08"/><line class="cls-3" x1="28.6" y1="28.6" x2="31.27" y2="53.97"/><line class="cls-3" x1="28.6" y1="28.6" x2="32.59" y2="53.8"/><line class="cls-3" x1="28.6" y1="28.6" x2="33.9" y2="53.55"/><line class="cls-3" x1="28.6" y1="28.6" x2="35.2" y2="53.24"/><line class="cls-3" x1="28.6" y1="28.6" x2="36.48" y2="52.86"/><line class="cls-3" x1="28.6" y1="28.6" x2="37.74" y2="52.42"/><line class="cls-3" x1="28.6" y1="28.6" x2="38.98" y2="51.91"/><line class="cls-3" x1="28.6" y1="28.6" x2="40.18" y2="51.33"/><line class="cls-3" x1="28.6" y1="28.6" x2="41.36" y2="50.69"/><line class="cls-3" x1="28.6" y1="28.6" x2="42.49" y2="50"/><line class="cls-3" x1="28.6" y1="28.6" x2="43.6" y2="49.24"/><line class="cls-3" x1="28.6" y1="28.6" x2="44.65" y2="48.43"/><line class="cls-3" x1="28.6" y1="28.6" x2="45.67" y2="47.56"/><line class="cls-3" x1="28.6" y1="28.6" x2="46.64" y2="46.64"/><line class="cls-3" x1="28.6" y1="28.6" x2="47.56" y2="45.67"/><line class="cls-3" x1="28.6" y1="28.6" x2="48.43" y2="44.65"/><line class="cls-3" x1="28.6" y1="28.6" x2="49.24" y2="43.6"/><line class="cls-3" x1="28.6" y1="28.6" x2="50" y2="42.49"/><line class="cls-3" x1="28.6" y1="28.6" x2="50.69" y2="41.36"/><line class="cls-3" x1="28.6" y1="28.6" x2="51.33" y2="40.18"/><line class="cls-3" x1="28.6" y1="28.6" x2="51.91" y2="38.98"/><line class="cls-3" x1="28.6" y1="28.6" x2="52.42" y2="37.74"/><line class="cls-3" x1="28.6" y1="28.6" x2="52.86" y2="36.48"/><line class="cls-3" x1="28.6" y1="28.6" x2="53.24" y2="35.2"/><line class="cls-3" x1="28.6" y1="28.6" x2="53.55" y2="33.9"/><line class="cls-3" x1="28.6" y1="28.6" x2="53.8" y2="32.59"/><line class="cls-3" x1="28.6" y1="28.6" x2="53.97" y2="31.27"/><line class="cls-3" x1="28.6" y1="28.6" x2="54.08" y2="29.94"/><line class="cls-3" x1="28.6" y1="28.6" x2="54.11" y2="28.6"/><line class="cls-3" x1="28.6" y1="28.6" x2="54.08" y2="27.27"/><line class="cls-3" x1="28.6" y1="28.6" x2="53.97" y2="25.93"/><line class="cls-3" x1="28.6" y1="28.6" x2="53.8" y2="24.61"/><line class="cls-3" x1="28.6" y1="28.6" x2="53.55" y2="23.3"/><line class="cls-3" x1="28.6" y1="28.6" x2="53.24" y2="22"/><line class="cls-3" x1="28.6" y1="28.6" x2="52.86" y2="20.72"/><line class="cls-3" x1="28.6" y1="28.6" x2="52.42" y2="19.46"/><line class="cls-3" x1="28.6" y1="28.6" x2="51.91" y2="18.23"/><line class="cls-3" x1="28.6" y1="28.6" x2="51.33" y2="17.02"/><line class="cls-3" x1="28.6" y1="28.6" x2="50.69" y2="15.85"/><line class="cls-3" x1="28.6" y1="28.6" x2="50" y2="14.71"/><line class="cls-3" x1="28.6" y1="28.6" x2="49.24" y2="13.61"/><line class="cls-3" x1="28.6" y1="28.6" x2="48.43" y2="12.55"/><line class="cls-3" x1="28.6" y1="28.6" x2="47.56" y2="11.53"/><line class="cls-3" x1="28.6" y1="28.6" x2="46.64" y2="10.56"/><line class="cls-3" x1="28.6" y1="28.6" x2="45.67" y2="9.64"/><line class="cls-3" x1="28.6" y1="28.6" x2="44.65" y2="8.78"/><line class="cls-3" x1="28.6" y1="28.6" x2="43.6" y2="7.96"/><line class="cls-3" x1="28.6" y1="28.6" x2="42.49" y2="7.21"/><line class="cls-3" x1="28.6" y1="28.6" x2="41.36" y2="6.51"/><line class="cls-3" x1="28.6" y1="28.6" x2="40.18" y2="5.87"/><line class="cls-3" x1="28.6" y1="28.6" x2="38.98" y2="5.3"/><line class="cls-3" x1="28.6" y1="28.6" x2="37.74" y2="4.79"/><line class="cls-3" x1="28.6" y1="28.6" x2="36.48" y2="4.34"/><line class="cls-3" x1="28.6" y1="28.6" x2="35.2" y2="3.96"/><line class="cls-3" x1="28.6" y1="28.6" x2="33.9" y2="3.65"/><line class="cls-3" x1="28.6" y1="28.6" x2="32.59" y2="3.41"/><line class="cls-3" x1="28.6" y1="28.6" x2="31.27" y2="3.23"/><line class="cls-3" x1="28.6" y1="28.6" x2="29.94" y2="3.13"/><line class="cls-3" x1="28.6" y1="28.6" x2="28.6" y2="3.09"/><line class="cls-3" x1="28.6" y1="28.6" x2="27.27" y2="3.13"/><line class="cls-3" x1="28.6" y1="28.6" x2="25.93" y2="3.23"/><line class="cls-3" x1="28.6" y1="28.6" x2="24.61" y2="3.41"/><line class="cls-3" x1="28.6" y1="28.6" x2="23.3" y2="3.65"/><line class="cls-3" x1="28.6" y1="28.6" x2="22" y2="3.96"/><line class="cls-3" x1="28.6" y1="28.6" x2="20.72" y2="4.34"/><line class="cls-3" x1="28.6" y1="28.6" x2="19.46" y2="4.79"/><line class="cls-3" x1="28.6" y1="28.6" x2="18.23" y2="5.3"/><line class="cls-3" x1="28.6" y1="28.6" x2="17.02" y2="5.87"/><line class="cls-3" x1="28.6" y1="28.6" x2="15.85" y2="6.51"/><line class="cls-3" x1="28.6" y1="28.6" x2="14.71" y2="7.21"/><line class="cls-3" x1="28.6" y1="28.6" x2="13.61" y2="7.96"/><line class="cls-3" x1="28.6" y1="28.6" x2="12.55" y2="8.78"/><line class="cls-3" x1="28.6" y1="28.6" x2="11.53" y2="9.64"/></g><rect class="cls-2" width="10.56" height="10.56"/><rect class="cls-4" x="9.51" width="1.06" height="1.06"/><rect class="cls-4" x="7.39" width="1.06" height="1.06"/><rect class="cls-4" x="5.28" width="1.06" height="1.06"/><rect class="cls-4" x="3.17" width="1.06" height="1.06"/><rect class="cls-4" x="1.06" width="1.06" height="1.06"/><rect class="cls-4" x="8.45" y="1.06" width="1.06" height="1.06"/><rect class="cls-4" x="6.34" y="1.06" width="1.06" height="1.06"/><rect class="cls-4" x="4.23" y="1.06" width="1.06" height="1.06"/><rect class="cls-4" x="2.11" y="1.06" width="1.06" height="1.06"/><rect class="cls-4" y="1.06" width="1.06" height="1.06"/><rect class="cls-4" x="9.51" y="2.11" width="1.06" height="1.06"/><rect class="cls-4" x="7.39" y="2.11" width="1.06" height="1.06"/><rect class="cls-4" x="5.28" y="2.11" width="1.06" height="1.06"/><rect class="cls-4" x="3.17" y="2.11" width="1.06" height="1.06"/><rect class="cls-4" x="1.06" y="2.11" width="1.06" height="1.06"/><rect class="cls-4" x="8.45" y="3.17" width="1.06" height="1.06"/><rect class="cls-4" x="6.34" y="3.17" width="1.06" height="1.06"/><rect class="cls-4" x="4.23" y="3.17" width="1.06" height="1.06"/><rect class="cls-4" x="2.11" y="3.17" width="1.06" height="1.06"/><rect class="cls-4" y="3.17" width="1.06" height="1.06"/><rect class="cls-4" x="9.51" y="4.23" width="1.06" height="1.06"/><rect class="cls-4" x="7.39" y="4.23" width="1.06" height="1.06"/><rect class="cls-4" x="5.28" y="4.23" width="1.06" height="1.06"/><rect class="cls-4" x="3.17" y="4.23" width="1.06" height="1.06"/><rect class="cls-4" x="1.06" y="4.23" width="1.06" height="1.06"/><rect class="cls-4" x="8.45" y="5.28" width="1.06" height="1.06"/><rect class="cls-4" x="6.34" y="5.28" width="1.06" height="1.06"/><rect class="cls-4" x="4.23" y="5.28" width="1.06" height="1.06"/><rect class="cls-4" x="2.11" y="5.28" width="1.06" height="1.06"/><rect class="cls-4" y="5.28" width="1.06" height="1.06"/><rect class="cls-4" x="9.51" y="6.34" width="1.06" height="1.06"/><rect class="cls-4" x="7.39" y="6.34" width="1.06" height="1.06"/><rect class="cls-4" x="5.28" y="6.34" width="1.06" height="1.06"/><rect class="cls-4" x="3.17" y="6.34" width="1.06" height="1.06"/><rect class="cls-4" x="1.06" y="6.34" width="1.06" height="1.06"/><rect class="cls-4" x="8.45" y="7.39" width="1.06" height="1.06"/><rect class="cls-4" x="6.34" y="7.39" width="1.06" height="1.06"/><rect class="cls-4" x="4.23" y="7.39" width="1.06" height="1.06"/><rect class="cls-4" x="2.11" y="7.39" width="1.06" height="1.06"/><rect class="cls-4" y="7.39" width="1.06" height="1.06"/><rect class="cls-4" x="9.51" y="8.45" width="1.06" height="1.06"/><rect class="cls-4" x="7.39" y="8.45" width="1.06" height="1.06"/><rect class="cls-4" x="5.28" y="8.45" width="1.06" height="1.06"/><rect class="cls-4" x="3.17" y="8.45" width="1.06" height="1.06"/><rect class="cls-4" x="1.06" y="8.45" width="1.06" height="1.06"/><rect class="cls-4" x="8.45" y="9.51" width="1.06" height="1.06"/><rect class="cls-4" x="6.34" y="9.51" width="1.06" height="1.06"/><rect class="cls-4" x="4.23" y="9.51" width="1.06" height="1.06"/><rect class="cls-4" x="2.11" y="9.51" width="1.06" height="1.06"/><rect class="cls-4" y="9.51" width="1.06" height="1.06"/></g></svg>